<?xml version="1.0" standalone="no"?>
<!DOCTYPE svg PUBLIC "-//W3C//DTD SVG 20010904//EN"
 "http://www.w3.org/TR/2001/REC-SVG-20010904/DTD/svg10.dtd">
<svg version="1.0" xmlns="http://www.w3.org/2000/svg"
 width="300.000000pt" height="300.000000pt" viewBox="0 0 300.000000 300.000000"
 preserveAspectRatio="xMidYMid meet">
<metadata>
Created by potrace 1.10, written by Peter Selinger 2001-2011
</metadata>
<g transform="translate(0.000000,300.000000) scale(0.100000,-0.100000)"
fill="#000000" stroke="none">
<path d="M1415 2728 c-496 -32 -932 -369 -1089 -838 -46 -140 -59 -225 -59
-387 0 -84 2 -155 5 -158 3 -3 16 -1 30 4 13 5 71 17 128 26 149 25 385 16
529 -20 58 -14 107 -27 108 -29 2 -2 -2 -15 -8 -30 -9 -18 -18 -25 -28 -20
-39 15 -235 54 -323 63 -125 14 -203 14 -329 -1 l-101 -11 7 -46 c22 -146 120
-377 210 -496 l46 -60 -29 -25 c-16 -14 -77 -67 -137 -119 -59 -51 -97 -90
-84 -86 41 13 219 104 268 137 60 42 243 219 342 334 72 82 83 91 131 103 411
103 701 289 816 523 46 94 62 166 62 281 l0 80 -61 -7 c-90 -9 -175 -33 -264
-75 -109 -52 -182 -103 -270 -191 -41 -40 -75 -69 -75 -62 0 23 159 221 257
319 81 81 104 111 114 145 65 242 281 340 469 213 20 -13 70 -30 120 -40 47
-9 89 -20 93 -25 5 -4 -22 -13 -59 -19 -96 -17 -135 -40 -166 -98 -49 -90 -53
-119 -30 -219 44 -186 36 -300 -30 -434 -47 -98 -161 -208 -268 -260 -46 -22
-92 -40 -101 -40 -31 0 -29 -15 9 -57 36 -39 39 -40 138 -53 265 -34 541 18
802 152 124 63 141 63 35 0 -279 -164 -465 -218 -723 -209 -80 3 -160 10 -178
16 -30 9 -34 8 -42 -15 -5 -13 -17 -24 -27 -24 -13 0 -14 3 -5 12 13 13 16 48
4 48 -4 0 -13 -9 -20 -20 -7 -11 -20 -20 -29 -20 -14 0 -14 2 2 20 22 24 22
24 -40 39 -27 7 -82 25 -121 40 -67 26 -74 27 -150 17 l-81 -11 -124 -111
c-224 -200 -323 -284 -386 -327 -34 -23 -62 -44 -62 -47 0 -9 113 -96 179
-139 361 -234 816 -267 1208 -86 239 111 460 326 576 562 90 181 127 340 127
549 2 341 -115 626 -356 870 -260 263 -588 387 -960 362z m234 -39 c220 -36
408 -110 561 -222 133 -98 284 -277 359 -426 90 -180 124 -330 125 -551 0
-192 -9 -224 -68 -249 -78 -34 -225 -83 -237 -79 -15 5 114 126 190 177 64 44
72 58 44 84 -28 24 -100 29 -191 13 -179 -32 -302 -123 -400 -297 -39 -69 -47
-71 -197 -58 -96 8 -155 25 -155 44 0 3 31 20 69 39 71 35 128 73 171 116 160
160 213 355 160 594 -25 114 -25 124 4 189 28 64 60 89 143 112 34 10 70 26
80 37 17 19 17 21 -10 42 -26 21 -99 46 -135 46 -10 0 -38 13 -63 28 -211 134
-426 43 -518 -219 -14 -38 -40 -73 -108 -142 -102 -106 -188 -211 -228 -280
-23 -41 -26 -52 -16 -73 10 -24 12 -24 40 -10 16 9 42 28 57 44 133 131 322
230 491 257 34 5 43 3 52 -12 13 -26 3 -98 -21 -153 -11 -24 -24 -55 -30 -69
-18 -49 -100 -161 -152 -209 -65 -59 -148 -115 -236 -159 -64 -32 -65 -42 -3
-24 39 11 51 2 20 -15 -102 -57 -215 -100 -397 -151 -74 -20 -108 -42 -161
-105 -76 -91 -276 -292 -308 -311 -33 -19 -37 -17 -20 14 8 16 -2 38 -61 133
-39 63 -87 152 -106 199 -38 94 -74 225 -67 243 6 17 48 21 204 23 142 2 266
-13 417 -49 91 -22 109 -19 139 26 15 24 15 27 -4 52 -13 17 -39 32 -77 43
-32 10 -60 20 -62 22 -3 3 10 36 30 73 48 95 56 133 56 256 0 59 5 130 11 157
6 28 9 61 6 73 -3 19 -7 15 -27 -27 -21 -43 -24 -67 -26 -176 -1 -70 -5 -142
-9 -160 -8 -36 -63 -150 -88 -184 -15 -19 -17 -17 -44 40 -25 53 -28 72 -28
155 0 87 3 101 32 160 20 42 58 91 104 138 39 40 69 75 66 78 -23 23 -148 -95
-196 -185 -16 -31 -35 -87 -42 -124 -7 -37 -15 -67 -19 -67 -3 0 -21 16 -40
35 -19 19 -64 55 -100 79 -36 25 -90 68 -120 97 -31 30 -56 47 -58 40 -9 -27
52 -93 148 -161 109 -77 163 -139 205 -234 l26 -59 -52 7 c-170 23 -308 189
-338 411 l-7 50 -14 -28 c-11 -23 -11 -39 -1 -93 18 -89 59 -170 127 -249 31
-37 54 -68 52 -70 -1 -1 -57 -10 -123 -19 -66 -9 -130 -19 -141 -22 -28 -7
-34 15 -34 127 0 166 40 335 119 495 134 274 345 473 625 588 191 79 433 113
605 85z m976 -1289 c3 -5 -1 -10 -10 -10 -36 0 -101 -46 -202 -141 -117 -112
-174 -145 -276 -160 -105 -15 -102 -17 -70 43 41 76 142 179 213 217 33 18 88
38 123 46 74 16 213 19 222 5z m20 -252 c-17 -77 -93 -236 -159 -330 -49 -70
-124 -158 -134 -158 -4 0 -16 20 -26 43 -30 64 -89 139 -156 197 -33 29 -58
55 -56 57 2 2 37 12 77 22 96 24 162 47 222 77 27 13 54 24 60 25 7 0 44 22
82 49 85 59 99 62 90 18z m-1185 -103 c52 -20 106 -47 120 -60 39 -37 77 -48
103 -30 40 28 141 10 153 -28 11 -34 78 -120 124 -160 46 -39 110 -72 181 -93
54 -16 139 -62 139 -74 0 -19 -112 -99 -227 -161 -239 -129 -561 -169 -827
-103 -135 34 -272 93 -392 169 -56 36 -124 93 -124 104 0 4 20 22 44 40 25 17
142 117 261 221 159 140 224 191 248 194 39 7 79 13 92 15 6 0 53 -15 105 -34z
m606 -116 c70 -34 158 -123 214 -218 27 -47 48 -87 46 -89 -2 -2 -23 10 -46
27 -23 16 -71 40 -108 52 -140 46 -206 92 -273 190 -21 32 -39 61 -39 65 0 16
161 -5 206 -27z"/>
<path d="M1828 1753 c-8 -10 -34 -47 -57 -83 -76 -114 -212 -242 -355 -334
-71 -45 -68 -57 6 -20 177 89 313 224 397 392 32 64 35 74 9 45z"/>
<path d="M1498 1674 c-23 -20 -101 -82 -171 -137 -70 -54 -126 -102 -123 -104
8 -8 192 118 253 172 48 42 101 105 90 105 -3 0 -25 -16 -49 -36z"/>
<path d="M1512 1639 c-52 -58 -128 -118 -232 -183 -85 -53 -77 -61 14 -15 102
52 198 128 242 191 40 57 24 61 -24 7z"/>
<path d="M1941 2272 c-13 -25 5 -52 34 -52 15 0 26 7 30 20 13 41 -44 70 -64
32z"/>
<path d="M1510 1131 c-21 -6 -16 -9 38 -28 67 -23 75 -19 39 15 -24 23 -35 25
-77 13z"/>
</g>
</svg>